# Blender v2.74 (sub 0) OBJ File: ''
# www.blender.org
mtllib CubeTip.mtl
o Cube
v 1.000000 -1.000000 -1.000000
v 1.000000 -1.000000 1.000000
v -1.000000 -1.000000 1.000000
v -1.000000 -1.000000 -1.000000
v 1.000000 1.000000 -0.999999
v 0.999999 1.000000 1.000001
v -1.000000 1.000000 1.000000
v -1.000000 1.000000 -1.000000
v 1.000000 -1.000000 0.000000
v 0.000000 -1.000000 -1.000000
v 1.000000 0.000000 -1.000000
v 0.000000 -1.000000 1.000000
v 1.000000 0.000000 1.000000
v -1.000000 -1.000000 -0.000000
v -1.000000 0.000000 1.000000
v -1.000000 0.000000 -1.000000
v 1.000000 1.000000 0.000001
v 0.000000 1.000000 -1.000000
v -0.000001 1.000000 1.000000
v -1.000000 1.000000 -0.000000
v 0.000000 0.000000 -1.000000
v -1.000000 0.000000 -0.000000
v -0.000000 0.000000 1.000000
v 2.371166 0.000000 -0.499999
v 0.000000 -1.000000 -0.000000
v 1.000000 -1.000000 0.500000
v -0.500000 -1.000000 -1.000000
v 1.000000 0.500000 -1.000000
v -0.500000 -1.000000 1.000000
v 1.000000 0.500000 1.000000
v -1.000000 -1.000000 -0.500000
v -1.000000 0.500000 1.000000
v -1.000000 0.500000 -1.000000
v 1.000000 1.000000 0.500001
v -0.500000 1.000000 -1.000000
v -0.500000 1.000000 1.000000
v -1.000000 1.000000 -0.500000
v 1.000000 -1.000000 -0.500000
v 0.500000 -1.000000 -1.000000
v 1.000000 -0.500000 -1.000000
v 0.500000 -1.000000 1.000000
v 1.000000 -0.500000 1.000000
v -1.000000 -1.000000 0.500000
v -1.000000 -0.500000 1.000000
v -1.000000 -0.500000 -1.000000
v 1.000000 1.000000 -0.499999
v 0.500000 1.000000 -1.000000
v 0.499999 1.000000 1.000000
v -1.000000 1.000000 0.500000
v -0.500000 0.000000 -1.000000
v 0.500000 0.000000 -1.000000
v 0.000000 0.500000 -1.000000
v 0.000000 -0.500000 -1.000000
v -1.000000 0.000000 -0.500000
v -1.000000 0.000000 0.500000
v -1.000000 -0.500000 -0.000000
v -1.000000 0.500000 -0.000000
v -0.500000 0.000000 1.000000
v 0.500000 0.000000 1.000000
v -0.000000 -0.500000 1.000000
v -0.000000 0.500000 1.000000
v 1.000000 0.000000 0.500000
v 1.000000 0.000000 -0.500000
v 1.000000 -0.500000 0.000000
v 1.000000 0.500000 0.000000
v -0.000000 1.000000 0.500000
v 0.000000 1.000000 -0.500000
v 0.500000 1.000000 0.000000
v -0.500000 1.000000 0.000000
v -0.500000 -1.000000 -0.000000
v 0.500000 -1.000000 -0.000000
v 0.000000 -1.000000 -0.500000
v 0.000000 -1.000000 0.500000
v 0.500000 -1.000000 0.500000
v 0.500000 -1.000000 -0.500000
v -0.500000 -1.000000 -0.500000
v -0.500000 1.000000 -0.500000
v 0.500000 1.000000 -0.500000
v 0.500000 1.000000 0.500000
v 1.000000 0.500000 -0.500000
v 1.000000 -0.500000 -0.500000
v 1.000000 -0.500000 0.500000
v 0.500000 0.500000 1.000000
v 0.500000 -0.500000 1.000000
v -0.500000 -0.500000 1.000000
v -1.000000 0.500000 0.500000
v -1.000000 -0.500000 0.500000
v -1.000000 -0.500000 -0.500000
v 0.500000 -0.500000 -1.000000
v 0.500000 0.500000 -1.000000
v -0.500000 0.500000 -1.000000
v -0.500000 -0.500000 -1.000000
v -1.000000 0.500000 -0.500000
v -0.500000 0.500000 1.000000
v 1.000000 0.500000 0.500000
v -0.500000 1.000000 0.500000
v -0.500000 -1.000000 0.500000
v 0.000000 0.162349 -0.500000
v -0.000000 0.162349 0.000000
v -0.500000 0.162349 0.000000
v -0.000000 0.162349 0.500000
v 0.500000 0.162349 0.000000
v -0.500000 0.162349 -0.500000
v 0.500000 0.162349 -0.500000
v 0.500000 0.162349 0.500000
v -0.500000 0.162349 0.500000
v 2.371166 0.000000 0.000001
v 2.371166 0.500000 0.000001
v 2.371166 0.000000 0.500001
v 2.371166 -0.500000 0.000001
v 2.371166 0.500000 -0.499999
v 2.371166 -0.500000 -0.499999
v 2.371166 -0.500000 0.500001
v 2.371166 0.500000 0.500001
vn 0.000000 -1.000000 -0.000000
vn 0.000000 1.000000 0.000000
vn 1.000000 0.000000 0.000000
vn -0.000000 0.000000 1.000000
vn -1.000000 -0.000000 -0.000000
vn 0.000000 0.000000 -1.000000
usemtl Material
s off
f 97//1 29//1 3//1 43//1
f 96//2 49//2 7//2 36//2
f 95//3 34//3 6//3 30//3
f 94//4 36//4 7//4 32//4
f 93//5 37//5 8//5 33//5
f 92//6 27//6 4//6 45//6
f 91//6 50//6 16//6 33//6
f 90//6 51//6 21//6 52//6
f 89//6 39//6 10//6 53//6
f 88//5 54//5 16//5 45//5
f 87//5 55//5 22//5 56//5
f 86//5 49//5 20//5 57//5
f 85//4 58//4 15//4 44//4
f 84//4 59//4 23//4 60//4
f 83//4 48//4 19//4 61//4
f 82//3 62//3 13//3 42//3
f 82//1 64//1 110//1 113//1
f 80//3 46//3 17//3 65//3
f 79//2 66//2 19//2 48//2
f 79//5 68//5 102//5 105//5
f 77//2 37//2 20//2 69//2
f 76//1 70//1 14//1 31//1
f 75//1 71//1 25//1 72//1
f 74//1 41//1 12//1 73//1
f 71//1 74//1 73//1 25//1
f 9//1 26//1 74//1 71//1
f 26//1 2//1 41//1 74//1
f 39//1 75//1 72//1 10//1
f 1//1 38//1 75//1 39//1
f 38//1 9//1 71//1 75//1
f 27//1 76//1 31//1 4//1
f 10//1 72//1 76//1 27//1
f 72//1 25//1 70//1 76//1
f 66//6 79//6 105//6 101//6
f 18//2 35//2 77//2 67//2
f 35//2 8//2 37//2 77//2
f 46//2 78//2 68//2 17//2
f 5//2 47//2 78//2 46//2
f 47//2 18//2 67//2 78//2
f 34//2 79//2 48//2 6//2
f 17//2 68//2 79//2 34//2
f 69//3 96//3 106//3 100//3
f 62//4 82//4 113//4 109//4
f 11//3 28//3 80//3 63//3
f 28//3 5//3 46//3 80//3
f 38//3 81//3 64//3 9//3
f 1//3 40//3 81//3 38//3
f 40//3 11//3 63//3 81//3
f 26//3 82//3 42//3 2//3
f 9//3 64//3 82//3 26//3
f 65//2 95//2 114//2 108//2
f 59//4 83//4 61//4 23//4
f 13//4 30//4 83//4 59//4
f 30//4 6//4 48//4 83//4
f 41//4 84//4 60//4 12//4
f 2//4 42//4 84//4 41//4
f 42//4 13//4 59//4 84//4
f 29//4 85//4 44//4 3//4
f 12//4 60//4 85//4 29//4
f 60//4 23//4 58//4 85//4
f 55//5 86//5 57//5 22//5
f 15//5 32//5 86//5 55//5
f 32//5 7//5 49//5 86//5
f 43//5 87//5 56//5 14//5
f 3//5 44//5 87//5 43//5
f 44//5 15//5 55//5 87//5
f 31//5 88//5 45//5 4//5
f 14//5 56//5 88//5 31//5
f 56//5 22//5 54//5 88//5
f 51//6 89//6 53//6 21//6
f 11//6 40//6 89//6 51//6
f 40//6 1//6 39//6 89//6
f 47//6 90//6 52//6 18//6
f 5//6 28//6 90//6 47//6
f 28//6 11//6 51//6 90//6
f 35//6 91//6 33//6 8//6
f 18//6 52//6 91//6 35//6
f 52//6 21//6 50//6 91//6
f 50//6 92//6 45//6 16//6
f 21//6 53//6 92//6 50//6
f 53//6 10//6 27//6 92//6
f 54//5 93//5 33//5 16//5
f 22//5 57//5 93//5 54//5
f 57//5 20//5 37//5 93//5
f 58//4 94//4 32//4 15//4
f 23//4 61//4 94//4 58//4
f 61//4 19//4 36//4 94//4
f 62//3 95//3 30//3 13//3
f 95//4 62//4 109//4 114//4
f 65//3 17//3 34//3 95//3
f 66//2 96//2 36//2 19//2
f 96//6 66//6 101//6 106//6
f 69//2 20//2 49//2 96//2
f 70//1 97//1 43//1 14//1
f 25//1 73//1 97//1 70//1
f 73//1 12//1 29//1 97//1
f 104//2 98//2 99//2 102//2
f 98//2 103//2 100//2 99//2
f 102//2 99//2 101//2 105//2
f 99//2 100//2 106//2 101//2
f 78//4 67//4 98//4 104//4
f 68//5 78//5 104//5 102//5
f 67//4 77//4 103//4 98//4
f 77//3 69//3 100//3 103//3
f 112//3 24//3 107//3 110//3
f 24//3 111//3 108//3 107//3
f 110//3 107//3 109//3 113//3
f 107//3 108//3 114//3 109//3
f 81//6 63//6 24//6 112//6
f 64//1 81//1 112//1 110//1
f 63//6 80//6 111//6 24//6
f 80//2 65//2 108//2 111//2
